<svg width="1400" height="1205" viewBox="0 0 1400 1205" fill="none" xmlns="http://www.w3.org/2000/svg">
<g clip-path="url(#paint0_diamond_2747_7459_clip_path)" data-figma-skip-parse="true"><g transform="matrix(0 1.066 -1.23851 0 700 602.5)"><rect x="0" y="0" width="566.135" height="566.004" fill="url(#paint0_diamond_2747_7459)" opacity="1" shape-rendering="crispEdges"/><rect x="0" y="0" width="566.135" height="566.004" transform="scale(1 -1)" fill="url(#paint0_diamond_2747_7459)" opacity="1" shape-rendering="crispEdges"/><rect x="0" y="0" width="566.135" height="566.004" transform="scale(-1 1)" fill="url(#paint0_diamond_2747_7459)" opacity="1" shape-rendering="crispEdges"/><rect x="0" y="0" width="566.135" height="566.004" transform="scale(-1)" fill="url(#paint0_diamond_2747_7459)" opacity="1" shape-rendering="crispEdges"/></g></g><rect width="1400" height="1205" data-figma-gradient-fill="{&#34;type&#34;:&#34;GRADIENT_DIAMOND&#34;,&#34;stops&#34;:[{&#34;color&#34;:{&#34;r&#34;:0.71764707565307617,&#34;g&#34;:0.51372551918029785,&#34;b&#34;:0.93725490570068359,&#34;a&#34;:1.0},&#34;position&#34;:0.0},{&#34;color&#34;:{&#34;r&#34;:0.41137093305587769,&#34;g&#34;:0.29447865486145020,&#34;b&#34;:0.53725492954254150,&#34;a&#34;:1.0},&#34;position&#34;:1.0}],&#34;stopsVar&#34;:[{&#34;color&#34;:{&#34;r&#34;:0.71764707565307617,&#34;g&#34;:0.51372551918029785,&#34;b&#34;:0.93725490570068359,&#34;a&#34;:1.0},&#34;position&#34;:0.0},{&#34;color&#34;:{&#34;r&#34;:0.41137093305587769,&#34;g&#34;:0.29447865486145020,&#34;b&#34;:0.53725492954254150,&#34;a&#34;:1.0},&#34;position&#34;:1.0}],&#34;transform&#34;:{&#34;m00&#34;:-1.5918917659757392e-13,&#34;m01&#34;:-2477.0124511718750,&#34;m02&#34;:1938.5062255859375,&#34;m10&#34;:2132.0,&#34;m11&#34;:-5.3836199821050146e-13,&#34;m12&#34;:-463.50},&#34;opacity&#34;:1.0,&#34;blendMode&#34;:&#34;NORMAL&#34;,&#34;visible&#34;:true}"/>
<g filter="url(#filter0_d_2747_7459)">
<path d="M263.752 201.148C266.496 183.251 280.399 170.091 298.302 167.383C318.751 164.289 348.998 161 385.166 161C421.933 161 452.582 164.399 473.038 167.537C490.39 170.198 503.902 182.758 506.607 200.102C509.491 218.594 512.331 247.203 512.331 288.166C512.331 331.204 509.196 360.604 506.169 378.961C503.565 394.754 491.711 406.438 475.917 409.038C457.282 412.105 427.596 415.331 385.166 415.331C343.443 415.331 314.043 412.212 295.356 409.192C279.016 406.551 266.828 394.302 264.189 377.961C261.154 359.168 258 329.659 258 288.166C258 248.663 260.858 220.021 263.752 201.148Z" fill="url(#paint1_linear_2747_7459)"/>
<path d="M372.567 207.882C400.624 207.882 424.004 227.9 429.208 254.432C432.122 253.88 435.127 253.592 438.2 253.592C464.901 253.592 486.547 275.368 486.547 302.23C486.547 327.912 466.763 348.944 441.692 350.744L441.692 351.014H321.944L321.944 351.013C297.215 350.978 277.179 330.921 277.179 306.184C277.179 283.823 293.55 265.287 314.961 261.906C316.868 231.75 341.93 207.882 372.567 207.882Z" fill="white"/>
<path d="M406.762 263.554L357.037 313.279" stroke="#A852FF" stroke-width="17.5805" stroke-linecap="round"/>
<path d="M357.038 263.554L406.763 313.279" stroke="#7F00FF" stroke-width="17.5805" stroke-linecap="round"/>
<path d="M579.083 201.148C581.827 183.251 595.731 170.091 613.633 167.383C634.082 164.289 664.329 161 700.497 161C737.265 161 767.913 164.399 788.37 167.537C805.721 170.198 819.234 182.758 821.939 200.102C824.823 218.594 827.663 247.203 827.663 288.166C827.663 331.204 824.528 360.604 821.501 378.961C818.896 394.754 807.042 406.438 791.249 409.038C772.614 412.105 742.928 415.331 700.497 415.331C658.775 415.331 629.375 412.212 610.688 409.192C594.347 406.551 582.16 394.302 579.521 377.961C576.485 359.168 573.332 329.659 573.332 288.166C573.332 248.663 576.19 220.021 579.083 201.148Z" fill="url(#paint2_linear_2747_7459)"/>
<path d="M799.674 343.252C801.93 347.159 799.11 352.042 794.599 352.042L607.531 352.042C602.773 352.042 599.998 346.671 602.752 342.791L651.293 274.39C653.629 271.098 658.515 271.098 660.851 274.39L679.037 300.016C681.508 303.498 686.755 303.253 688.891 299.554L726.594 234.252C728.849 230.346 734.488 230.346 736.744 234.252L799.674 343.252Z" fill="white"/>
<circle cx="672.369" cy="223.118" r="21.0966" fill="white"/>
<path d="M894.415 201.148C897.159 183.251 911.062 170.091 928.965 167.383C949.414 164.289 979.661 161 1015.83 161C1052.6 161 1083.24 164.399 1103.7 167.537C1121.05 170.198 1134.57 182.758 1137.27 200.102C1140.15 218.594 1142.99 247.203 1142.99 288.166C1142.99 331.204 1139.86 360.604 1136.83 378.961C1134.23 394.754 1122.37 406.438 1106.58 409.038C1087.95 412.105 1058.26 415.331 1015.83 415.331C974.106 415.331 944.706 412.212 926.02 409.192C909.679 406.551 897.491 394.302 894.852 377.961C891.817 359.168 888.663 329.659 888.663 288.166C888.663 248.663 891.521 220.021 894.415 201.148Z" fill="url(#paint3_linear_2747_7459)"/>
<rect x="943.163" y="200.264" width="145.918" height="175.219" rx="14.0644" fill="white"/>
<line x1="968.361" y1="241.871" x2="1008.8" y2="241.871" stroke="#A852FF" stroke-width="14.0644" stroke-linecap="round"/>
<line x1="968.361" y1="266.483" x2="1067.98" y2="266.483" stroke="#A852FF" stroke-width="14.0644" stroke-linecap="round"/>
<line x1="968.361" y1="291.096" x2="1054.51" y2="291.096" stroke="#A852FF" stroke-width="14.0644" stroke-linecap="round"/>
<line x1="968.361" y1="315.709" x2="1018.76" y2="315.709" stroke="#A852FF" stroke-width="14.0644" stroke-linecap="round"/>
<path d="M263.752 516.479C266.496 498.582 280.399 485.423 298.302 482.714C318.751 479.621 348.998 476.332 385.166 476.332C421.933 476.332 452.582 479.731 473.038 482.868C490.39 485.529 503.902 498.089 506.607 515.434C509.491 533.925 512.331 562.534 512.331 603.497C512.331 646.535 509.196 675.936 506.169 694.293C503.565 710.086 491.711 721.77 475.917 724.369C457.282 727.437 427.596 730.663 385.166 730.663C343.443 730.663 314.043 727.543 295.356 724.523C279.016 721.882 266.828 709.634 264.189 693.293C261.154 674.499 258 644.99 258 603.497C258 563.994 260.858 535.353 263.752 516.479Z" fill="url(#paint4_linear_2747_7459)"/>
<rect x="453.144" y="544.31" width="16.9945" height="123.064" rx="8.49725" fill="white"/>
<rect x="307.812" y="525.557" width="130.096" height="155.881" rx="14.0644" fill="white"/>
<line x1="331.252" y1="561.89" x2="365.241" y2="561.89" stroke="#A852FF" stroke-width="14.0644" stroke-linecap="round"/>
<line x1="331.252" y1="583.573" x2="417.982" y2="583.573" stroke="#A852FF" stroke-width="14.0644" stroke-linecap="round"/>
<line x1="331.252" y1="605.841" x2="406.262" y2="605.841" stroke="#A852FF" stroke-width="14.0644" stroke-linecap="round"/>
<line x1="331.252" y1="627.524" x2="374.031" y2="627.524" stroke="#A852FF" stroke-width="14.0644" stroke-linecap="round"/>
<path d="M579.083 516.479C581.827 498.582 595.731 485.423 613.633 482.714C634.082 479.621 664.329 476.332 700.497 476.332C737.265 476.332 767.913 479.731 788.37 482.868C805.721 485.529 819.234 498.089 821.939 515.434C824.823 533.925 827.663 562.534 827.663 603.497C827.663 646.535 824.528 675.936 821.501 694.293C818.896 710.086 807.042 721.77 791.249 724.369C772.614 727.437 742.928 730.663 700.497 730.663C658.775 730.663 629.375 727.543 610.688 724.523C594.347 721.882 582.16 709.634 579.521 693.293C576.485 674.499 573.332 644.99 573.332 603.497C573.332 563.994 576.19 535.353 579.083 516.479Z" fill="url(#paint5_linear_2747_7459)"/>
<circle cx="700.79" cy="603.205" r="85.8515" fill="white"/>
<path d="M700.498 657.596L676.645 603.297L724.35 603.297L700.498 657.596Z" fill="#A852FF"/>
<path d="M700.497 548.998L724.35 603.297L676.645 603.297L700.497 548.998Z" fill="#7F00FF"/>
<path d="M894.415 516.479C897.159 498.582 911.062 485.423 928.965 482.714C949.414 479.621 979.661 476.332 1015.83 476.332C1052.6 476.332 1083.24 479.731 1103.7 482.868C1121.05 485.529 1134.57 498.089 1137.27 515.434C1140.15 533.925 1142.99 562.534 1142.99 603.497C1142.99 646.535 1139.86 675.936 1136.83 694.293C1134.23 710.086 1122.37 721.77 1106.58 724.369C1087.95 727.437 1058.26 730.663 1015.83 730.663C974.106 730.663 944.706 727.543 926.02 724.523C909.679 721.882 897.491 709.634 894.852 693.293C891.817 674.499 888.663 644.99 888.663 603.497C888.663 563.994 891.521 535.353 894.415 516.479Z" fill="url(#paint6_linear_2747_7459)"/>
<circle cx="1015.83" cy="554.273" r="41.0212" fill="white"/>
<ellipse cx="1015.83" cy="655.361" rx="77.3543" ry="51.8625" fill="white"/>
<path d="M263.752 831.811C266.496 813.914 280.399 800.754 298.302 798.046C318.751 794.952 348.998 791.663 385.166 791.663C421.933 791.663 452.582 795.062 473.038 798.2C490.39 800.861 503.902 813.421 506.607 830.765C509.491 849.257 512.331 877.866 512.331 918.829C512.331 961.867 509.196 991.267 506.169 1009.62C503.565 1025.42 491.711 1037.1 475.917 1039.7C457.282 1042.77 427.596 1045.99 385.166 1045.99C343.443 1045.99 314.043 1042.87 295.356 1039.85C279.016 1037.21 266.828 1024.97 264.189 1008.62C261.154 989.831 258 960.322 258 918.829C258 879.326 260.858 850.684 263.752 831.811Z" fill="url(#paint7_linear_2747_7459)"/>
<rect x="304.881" y="861.985" width="161.155" height="103.725" rx="15.2364" fill="white"/>
<path d="M324.22 881.91L378.12 906.668C382.779 908.808 388.139 908.808 392.797 906.668L446.697 881.91" stroke="#A852FF" stroke-width="11.7203" stroke-linecap="round"/>
<path d="M579.083 831.811C581.827 813.914 595.731 800.754 613.633 798.046C634.082 794.952 664.329 791.663 700.497 791.663C737.265 791.663 767.913 795.062 788.37 798.2C805.721 800.861 819.234 813.421 821.939 830.765C824.823 849.257 827.663 877.866 827.663 918.829C827.663 961.867 824.528 991.267 821.501 1009.62C818.896 1025.42 807.042 1037.1 791.249 1039.7C772.614 1042.77 742.928 1045.99 700.497 1045.99C658.775 1045.99 629.375 1042.87 610.688 1039.85C594.347 1037.21 582.16 1024.97 579.521 1008.62C576.485 989.831 573.332 960.322 573.332 918.829C573.332 879.326 576.19 850.684 579.083 831.811Z" fill="url(#paint8_linear_2747_7459)"/>
<path d="M747.966 931.305L761.755 945.2L775.65 931.41" stroke="white" stroke-width="11.7203" stroke-linecap="round" stroke-linejoin="round"/>
<path d="M775.659 900.493L761.87 886.598L747.975 900.387" stroke="white" stroke-width="11.7203" stroke-linecap="round" stroke-linejoin="round"/>
<circle cx="675.884" cy="879.697" r="30.0186" fill="white"/>
<ellipse cx="675.885" cy="954.106" rx="56.8437" ry="38.0022" fill="white"/>
<path d="M894.415 831.811C897.159 813.914 911.063 800.754 928.965 798.046C949.414 794.953 979.662 791.663 1015.83 791.663C1052.6 791.663 1083.25 795.062 1103.71 798.2C1121.06 800.861 1134.57 813.421 1137.28 830.765C1140.16 849.257 1143 877.866 1143 918.829C1143 961.867 1139.86 991.267 1136.84 1009.62C1134.23 1025.42 1122.38 1037.1 1106.59 1039.7C1087.95 1042.77 1058.26 1045.99 1015.83 1045.99C974.108 1045.99 944.707 1042.87 926.02 1039.85C909.679 1037.21 897.492 1024.97 894.852 1008.62C891.817 989.831 888.663 960.322 888.663 918.829C888.663 879.326 891.522 850.684 894.415 831.811Z" fill="url(#paint9_linear_2747_7459)"/>
<path d="M1115.01 973.916C1117.27 977.823 1114.45 982.706 1109.94 982.706H922.863C918.105 982.706 915.33 977.335 918.084 973.455L966.626 905.054C968.962 901.762 973.848 901.762 976.184 905.054L994.37 930.68C996.842 934.163 1002.09 933.917 1004.22 930.219L1041.93 864.916C1044.18 861.01 1049.82 861.01 1052.08 864.916L1115.01 973.916Z" fill="white"/>
<ellipse cx="987.702" cy="853.781" rx="21.0971" ry="21.0966" fill="white"/>
</g>
<defs>
<clipPath id="paint0_diamond_2747_7459_clip_path"><rect width="1400" height="1205"/></clipPath><filter id="filter0_d_2747_7459" x="258" y="161" width="915" height="920.994" filterUnits="userSpaceOnUse" color-interpolation-filters="sRGB">
<feFlood flood-opacity="0" result="BackgroundImageFix"/>
<feColorMatrix in="SourceAlpha" type="matrix" values="0 0 0 0 0 0 0 0 0 0 0 0 0 0 0 0 0 0 127 0" result="hardAlpha"/>
<feOffset dx="26" dy="32"/>
<feGaussianBlur stdDeviation="2"/>
<feComposite in2="hardAlpha" operator="out"/>
<feColorMatrix type="matrix" values="0 0 0 0 0.42504 0 0 0 0 0 0 0 0 0 0.882775 0 0 0 1 0"/>
<feBlend mode="normal" in2="BackgroundImageFix" result="effect1_dropShadow_2747_7459"/>
<feBlend mode="normal" in="SourceGraphic" in2="effect1_dropShadow_2747_7459" result="shape"/>
</filter>
<linearGradient id="paint0_diamond_2747_7459" x1="0" y1="0" x2="500" y2="500" gradientUnits="userSpaceOnUse">
<stop stop-color="#B783EF"/>
<stop offset="1" stop-color="#694B89"/>
</linearGradient>
<linearGradient id="paint1_linear_2747_7459" x1="302.07" y1="141.131" x2="468.262" y2="424.359" gradientUnits="userSpaceOnUse">
<stop offset="0.302885" stop-color="#D1BCE8"/>
<stop offset="1" stop-color="#7C00FF"/>
</linearGradient>
<linearGradient id="paint2_linear_2747_7459" x1="617.401" y1="141.131" x2="783.593" y2="424.359" gradientUnits="userSpaceOnUse">
<stop offset="0.302885" stop-color="#D1BCE8"/>
<stop offset="1" stop-color="#7C00FF"/>
</linearGradient>
<linearGradient id="paint3_linear_2747_7459" x1="932.733" y1="141.131" x2="1098.92" y2="424.359" gradientUnits="userSpaceOnUse">
<stop offset="0.302885" stop-color="#D1BCE8"/>
<stop offset="1" stop-color="#7C00FF"/>
</linearGradient>
<linearGradient id="paint4_linear_2747_7459" x1="302.07" y1="456.462" x2="468.262" y2="739.691" gradientUnits="userSpaceOnUse">
<stop offset="0.302885" stop-color="#D1BCE8"/>
<stop offset="1" stop-color="#7C00FF"/>
</linearGradient>
<linearGradient id="paint5_linear_2747_7459" x1="617.401" y1="456.462" x2="783.593" y2="739.691" gradientUnits="userSpaceOnUse">
<stop offset="0.302885" stop-color="#D1BCE8"/>
<stop offset="1" stop-color="#7C00FF"/>
</linearGradient>
<linearGradient id="paint6_linear_2747_7459" x1="932.733" y1="456.462" x2="1098.92" y2="739.691" gradientUnits="userSpaceOnUse">
<stop offset="0.302885" stop-color="#D1BCE8"/>
<stop offset="1" stop-color="#7C00FF"/>
</linearGradient>
<linearGradient id="paint7_linear_2747_7459" x1="302.07" y1="771.794" x2="468.262" y2="1055.02" gradientUnits="userSpaceOnUse">
<stop offset="0.302885" stop-color="#D1BCE8"/>
<stop offset="1" stop-color="#7C00FF"/>
</linearGradient>
<linearGradient id="paint8_linear_2747_7459" x1="617.401" y1="771.794" x2="783.593" y2="1055.02" gradientUnits="userSpaceOnUse">
<stop offset="0.302885" stop-color="#D1BCE8"/>
<stop offset="1" stop-color="#7C00FF"/>
</linearGradient>
<linearGradient id="paint9_linear_2747_7459" x1="932.734" y1="771.794" x2="1098.92" y2="1055.03" gradientUnits="userSpaceOnUse">
<stop offset="0.302885" stop-color="#D1BCE8"/>
<stop offset="1" stop-color="#7C00FF"/>
</linearGradient>
</defs>
</svg>
